<?xml version="1.0" encoding="UTF-8" standalone="no"?>
<!DOCTYPE svg PUBLIC "-//W3C//DTD SVG 1.1//EN"
 "http://www.w3.org/Graphics/SVG/1.1/DTD/svg11.dtd">
<!-- Generated by graphviz version 2.44.0 (0)
 -->
<!-- Title: Pipeline Pages: 1 -->
<svg width="2127pt" height="1142pt"
 viewBox="0.00 0.00 2126.50 1142.00" xmlns="http://www.w3.org/2000/svg" xmlns:xlink="http://www.w3.org/1999/xlink">
<g id="graph0" class="graph" transform="scale(1 1) rotate(0) translate(4 1138)">
<title>Pipeline</title>
<polygon fill="white" stroke="transparent" points="-4,4 -4,-1138 2122.5,-1138 2122.5,4 -4,4"/>
<!-- isr:2 -->
<g id="node1" class="node">
<title>isr:2</title>
<polygon fill="#b1f2ef" stroke="black" stroke-width="3" points="1155,-946 848,-946 848,-844 1155,-844 1155,-946"/>
<text text-anchor="start" x="869.5" y="-918.6" font-family="Monospace" font-weight="bold" font-size="18.00">isr</text>
<text text-anchor="start" x="869.5" y="-888.8" font-family="Monospace" font-size="14.00">lsst.ip.isr.isrTask.IsrTask</text>
<text text-anchor="start" x="869.5" y="-862.8" font-family="Monospace" font-style="italic" font-size="14.00">dimensions:</text>
<text text-anchor="start" x="960.5" y="-862.8" font-family="Monospace" font-size="14.00"> {detector, exposure}</text>
</g>
<!-- postISRCCD:0 -->
<g id="node7" class="node">
<title>postISRCCD:0</title>
<path fill="#f5f5f5" stroke="#00babc" stroke-width="3" d="M1143,-790C1143,-790 860,-790 860,-790 854,-790 848,-784 848,-778 848,-778 848,-700 848,-700 848,-694 854,-688 860,-688 860,-688 1143,-688 1143,-688 1149,-688 1155,-694 1155,-700 1155,-700 1155,-778 1155,-778 1155,-784 1149,-790 1143,-790"/>
<text text-anchor="start" x="869.5" y="-762.6" font-family="Monospace" font-weight="bold" font-size="18.00">postISRCCD</text>
<text text-anchor="start" x="869.5" y="-733.8" font-family="Monospace" font-style="italic" font-size="14.00">dimensions:</text>
<text text-anchor="start" x="960.5" y="-733.8" font-family="Monospace" font-size="14.00"> {detector, exposure}</text>
<text text-anchor="start" x="869.5" y="-706.8" font-family="Monospace" font-style="italic" font-size="14.00">storage class:</text>
<text text-anchor="start" x="985.5" y="-706.8" font-family="Monospace" font-size="14.00"> Exposure</text>
</g>
<!-- isr:2&#45;&gt;postISRCCD:0 -->
<g id="edge1" class="edge">
<title>isr:2&#45;&gt;postISRCCD:0</title>
<path fill="none" stroke="black" stroke-width="1.5" d="M1001.5,-843.92C1001.5,-843.92 1001.5,-805.19 1001.5,-805.19"/>
<polygon fill="black" stroke="black" stroke-width="1.5" points="1006.75,-805.19 1001.5,-790.19 996.25,-805.2 1006.75,-805.19"/>
</g>
<!-- bias:0 -->
<g id="node2" class="node">
<title>bias:0</title>
<path fill="#f5f5f5" stroke="#00babc" stroke-width="3" d="M229,-1118C229,-1118 12,-1118 12,-1118 6,-1118 0,-1112 0,-1106 0,-1106 0,-1028 0,-1028 0,-1022 6,-1016 12,-1016 12,-1016 229,-1016 229,-1016 235,-1016 241,-1022 241,-1028 241,-1028 241,-1106 241,-1106 241,-1112 235,-1118 229,-1118"/>
<text text-anchor="start" x="21.5" y="-1090.6" font-family="Monospace" font-weight="bold" font-size="18.00">bias</text>
<text text-anchor="start" x="21.5" y="-1061.8" font-family="Monospace" font-style="italic" font-size="14.00">dimensions:</text>
<text text-anchor="start" x="112.5" y="-1061.8" font-family="Monospace" font-size="14.00"> {detector}</text>
<text text-anchor="start" x="21.5" y="-1034.8" font-family="Monospace" font-style="italic" font-size="14.00">storage class:</text>
<text text-anchor="start" x="137.5" y="-1034.8" font-family="Monospace" font-size="14.00"> ExposureF</text>
</g>
<!-- bias:0&#45;&gt;isr:2 -->
<g id="edge2" class="edge">
<title>bias:0&#45;&gt;isr:2</title>
<path fill="none" stroke="black" stroke-width="1.5" stroke-dasharray="5,2" d="M236.75,-1015.85C236.75,-959.88 236.75,-878 236.75,-878 236.75,-878 832.66,-878 832.66,-878"/>
<polygon fill="black" stroke="black" stroke-width="1.5" points="832.66,-883.25 847.66,-878 832.66,-872.75 832.66,-883.25"/>
</g>
<!-- linearizer:0 -->
<g id="node3" class="node">
<title>linearizer:0</title>
<path fill="#f5f5f5" stroke="#00babc" stroke-width="3" d="M514,-1118C514,-1118 289,-1118 289,-1118 283,-1118 277,-1112 277,-1106 277,-1106 277,-1028 277,-1028 277,-1022 283,-1016 289,-1016 289,-1016 514,-1016 514,-1016 520,-1016 526,-1022 526,-1028 526,-1028 526,-1106 526,-1106 526,-1112 520,-1118 514,-1118"/>
<text text-anchor="start" x="298.5" y="-1090.6" font-family="Monospace" font-weight="bold" font-size="18.00">linearizer</text>
<text text-anchor="start" x="298.5" y="-1061.8" font-family="Monospace" font-style="italic" font-size="14.00">dimensions:</text>
<text text-anchor="start" x="389.5" y="-1061.8" font-family="Monospace" font-size="14.00"> {detector}</text>
<text text-anchor="start" x="298.5" y="-1034.8" font-family="Monospace" font-style="italic" font-size="14.00">storage class:</text>
<text text-anchor="start" x="414.5" y="-1034.8" font-family="Monospace" font-size="14.00"> Linearizer</text>
</g>
<!-- linearizer:0&#45;&gt;isr:2 -->
<g id="edge3" class="edge">
<title>linearizer:0&#45;&gt;isr:2</title>
<path fill="none" stroke="black" stroke-width="1.5" stroke-dasharray="5,2" d="M516.25,-1015.82C516.25,-970.67 516.25,-912 516.25,-912 516.25,-912 832.96,-912 832.96,-912"/>
<polygon fill="black" stroke="black" stroke-width="1.5" points="832.96,-917.25 847.96,-912 832.96,-906.75 832.96,-917.25"/>
</g>
<!-- crosstalk:0 -->
<g id="node4" class="node">
<title>crosstalk:0</title>
<path fill="#f5f5f5" stroke="#00babc" stroke-width="3" d="M832.5,-1118C832.5,-1118 574.5,-1118 574.5,-1118 568.5,-1118 562.5,-1112 562.5,-1106 562.5,-1106 562.5,-1028 562.5,-1028 562.5,-1022 568.5,-1016 574.5,-1016 574.5,-1016 832.5,-1016 832.5,-1016 838.5,-1016 844.5,-1022 844.5,-1028 844.5,-1028 844.5,-1106 844.5,-1106 844.5,-1112 838.5,-1118 832.5,-1118"/>
<text text-anchor="start" x="583.5" y="-1090.6" font-family="Monospace" font-weight="bold" font-size="18.00">crosstalk</text>
<text text-anchor="start" x="583.5" y="-1061.8" font-family="Monospace" font-style="italic" font-size="14.00">dimensions:</text>
<text text-anchor="start" x="674.5" y="-1061.8" font-family="Monospace" font-size="14.00"> {detector}</text>
<text text-anchor="start" x="583.5" y="-1034.8" font-family="Monospace" font-style="italic" font-size="14.00">storage class:</text>
<text text-anchor="start" x="699.5" y="-1034.8" font-family="Monospace" font-size="14.00"> CrosstalkCalib</text>
</g>
<!-- crosstalk:0&#45;&gt;isr:2 -->
<g id="edge4" class="edge">
<title>crosstalk:0&#45;&gt;isr:2</title>
<path fill="none" stroke="black" stroke-width="1.5" stroke-dasharray="5,2" d="M844.76,-1067C856.8,-1067 864.5,-1067 864.5,-1067 864.5,-1067 864.5,-961.14 864.5,-961.14"/>
<polygon fill="black" stroke="black" stroke-width="1.5" points="869.75,-961.14 864.5,-946.14 859.25,-961.14 869.75,-961.14"/>
</g>
<!-- camera:0 -->
<g id="node5" class="node">
<title>camera:0</title>
<path fill="#f5f5f5" stroke="#00babc" stroke-width="3" d="M1110,-1118C1110,-1118 893,-1118 893,-1118 887,-1118 881,-1112 881,-1106 881,-1106 881,-1028 881,-1028 881,-1022 887,-1016 893,-1016 893,-1016 1110,-1016 1110,-1016 1116,-1016 1122,-1022 1122,-1028 1122,-1028 1122,-1106 1122,-1106 1122,-1112 1116,-1118 1110,-1118"/>
<text text-anchor="start" x="902.5" y="-1090.6" font-family="Monospace" font-weight="bold" font-size="18.00">camera</text>
<text text-anchor="start" x="902.5" y="-1061.8" font-family="Monospace" font-style="italic" font-size="14.00">dimensions:</text>
<text text-anchor="start" x="993.5" y="-1061.8" font-family="Monospace" font-size="14.00"> {instrument}</text>
<text text-anchor="start" x="902.5" y="-1034.8" font-family="Monospace" font-style="italic" font-size="14.00">storage class:</text>
<text text-anchor="start" x="1018.5" y="-1034.8" font-family="Monospace" font-size="14.00"> Camera</text>
</g>
<!-- camera:0&#45;&gt;isr:2 -->
<g id="edge5" class="edge">
<title>camera:0&#45;&gt;isr:2</title>
<path fill="none" stroke="black" stroke-width="1.5" stroke-dasharray="5,2" d="M1001.5,-1015.86C1001.5,-1015.86 1001.5,-961.24 1001.5,-961.24"/>
<polygon fill="black" stroke="black" stroke-width="1.5" points="1006.75,-961.24 1001.5,-946.24 996.25,-961.24 1006.75,-961.24"/>
</g>
<!-- defects:0 -->
<g id="node6" class="node">
<title>defects:0</title>
<path fill="#f5f5f5" stroke="#00babc" stroke-width="3" d="M1371,-1118C1371,-1118 1170,-1118 1170,-1118 1164,-1118 1158,-1112 1158,-1106 1158,-1106 1158,-1028 1158,-1028 1158,-1022 1164,-1016 1170,-1016 1170,-1016 1371,-1016 1371,-1016 1377,-1016 1383,-1022 1383,-1028 1383,-1028 1383,-1106 1383,-1106 1383,-1112 1377,-1118 1371,-1118"/>
<text text-anchor="start" x="1179.5" y="-1090.6" font-family="Monospace" font-weight="bold" font-size="18.00">defects</text>
<text text-anchor="start" x="1179.5" y="-1061.8" font-family="Monospace" font-style="italic" font-size="14.00">dimensions:</text>
<text text-anchor="start" x="1270.5" y="-1061.8" font-family="Monospace" font-size="14.00"> {detector}</text>
<text text-anchor="start" x="1179.5" y="-1034.8" font-family="Monospace" font-style="italic" font-size="14.00">storage class:</text>
<text text-anchor="start" x="1295.5" y="-1034.8" font-family="Monospace" font-size="14.00"> Defects</text>
</g>
<!-- defects:0&#45;&gt;isr:2 -->
<g id="edge6" class="edge">
<title>defects:0&#45;&gt;isr:2</title>
<path fill="none" stroke="black" stroke-width="1.5" stroke-dasharray="5,2" d="M1157.9,-1067C1143.13,-1067 1133,-1067 1133,-1067 1133,-1067 1133,-961.14 1133,-961.14"/>
<polygon fill="black" stroke="black" stroke-width="1.5" points="1138.25,-961.14 1133,-946.14 1127.75,-961.14 1138.25,-961.14"/>
</g>
<!-- characterizeImage:2 -->
<g id="node8" class="node">
<title>characterizeImage:2</title>
<polygon fill="#b1f2ef" stroke="black" stroke-width="3" points="1249.5,-634 753.5,-634 753.5,-532 1249.5,-532 1249.5,-634"/>
<text text-anchor="start" x="774.5" y="-606.6" font-family="Monospace" font-weight="bold" font-size="18.00">characterizeImage</text>
<text text-anchor="start" x="774.5" y="-576.8" font-family="Monospace" font-size="14.00">lsst.pipe.tasks.characterizeImage.CharacterizeImageTask</text>
<text text-anchor="start" x="774.5" y="-550.8" font-family="Monospace" font-style="italic" font-size="14.00">dimensions:</text>
<text text-anchor="start" x="865.5" y="-550.8" font-family="Monospace" font-size="14.00"> {detector, visit}</text>
</g>
<!-- postISRCCD:0&#45;&gt;characterizeImage:2 -->
<g id="edge7" class="edge">
<title>postISRCCD:0&#45;&gt;characterizeImage:2</title>
<path fill="none" stroke="black" stroke-width="1.5" d="M1001.5,-687.92C1001.5,-687.92 1001.5,-649.19 1001.5,-649.19"/>
<polygon fill="black" stroke="black" stroke-width="1.5" points="1006.75,-649.19 1001.5,-634.19 996.25,-649.2 1006.75,-649.19"/>
</g>
<!-- icExp:0 -->
<g id="node9" class="node">
<title>icExp:0</title>
<path fill="#f5f5f5" stroke="#00babc" stroke-width="3" d="M812.5,-462C812.5,-462 554.5,-462 554.5,-462 548.5,-462 542.5,-456 542.5,-450 542.5,-450 542.5,-372 542.5,-372 542.5,-366 548.5,-360 554.5,-360 554.5,-360 812.5,-360 812.5,-360 818.5,-360 824.5,-366 824.5,-372 824.5,-372 824.5,-450 824.5,-450 824.5,-456 818.5,-462 812.5,-462"/>
<text text-anchor="start" x="563.5" y="-434.6" font-family="Monospace" font-weight="bold" font-size="18.00">icExp</text>
<text text-anchor="start" x="563.5" y="-405.8" font-family="Monospace" font-style="italic" font-size="14.00">dimensions:</text>
<text text-anchor="start" x="654.5" y="-405.8" font-family="Monospace" font-size="14.00"> {detector, visit}</text>
<text text-anchor="start" x="563.5" y="-378.8" font-family="Monospace" font-style="italic" font-size="14.00">storage class:</text>
<text text-anchor="start" x="679.5" y="-378.8" font-family="Monospace" font-size="14.00"> ExposureF</text>
</g>
<!-- characterizeImage:2&#45;&gt;icExp:0 -->
<g id="edge8" class="edge">
<title>characterizeImage:2&#45;&gt;icExp:0</title>
<path fill="none" stroke="black" stroke-width="1.5" d="M789,-531.86C789,-531.86 789,-477.24 789,-477.24"/>
<polygon fill="black" stroke="black" stroke-width="1.5" points="794.25,-477.24 789,-462.24 783.75,-477.24 794.25,-477.24"/>
</g>
<!-- icSrc:0 -->
<g id="node10" class="node">
<title>icSrc:0</title>
<path fill="#f5f5f5" stroke="#00babc" stroke-width="3" d="M1130.5,-462C1130.5,-462 872.5,-462 872.5,-462 866.5,-462 860.5,-456 860.5,-450 860.5,-450 860.5,-372 860.5,-372 860.5,-366 866.5,-360 872.5,-360 872.5,-360 1130.5,-360 1130.5,-360 1136.5,-360 1142.5,-366 1142.5,-372 1142.5,-372 1142.5,-450 1142.5,-450 1142.5,-456 1136.5,-462 1130.5,-462"/>
<text text-anchor="start" x="881.5" y="-434.6" font-family="Monospace" font-weight="bold" font-size="18.00">icSrc</text>
<text text-anchor="start" x="881.5" y="-405.8" font-family="Monospace" font-style="italic" font-size="14.00">dimensions:</text>
<text text-anchor="start" x="972.5" y="-405.8" font-family="Monospace" font-size="14.00"> {detector, visit}</text>
<text text-anchor="start" x="881.5" y="-378.8" font-family="Monospace" font-style="italic" font-size="14.00">storage class:</text>
<text text-anchor="start" x="997.5" y="-378.8" font-family="Monospace" font-size="14.00"> SourceCatalog</text>
</g>
<!-- characterizeImage:2&#45;&gt;icSrc:0 -->
<g id="edge9" class="edge">
<title>characterizeImage:2&#45;&gt;icSrc:0</title>
<path fill="none" stroke="black" stroke-width="1.5" d="M1001.5,-531.86C1001.5,-531.86 1001.5,-477.24 1001.5,-477.24"/>
<polygon fill="black" stroke="black" stroke-width="1.5" points="1006.75,-477.24 1001.5,-462.24 996.25,-477.24 1006.75,-477.24"/>
</g>
<!-- icExpBackground:0 -->
<g id="node11" class="node">
<title>icExpBackground:0</title>
<path fill="#f5f5f5" stroke="#00babc" stroke-width="3" d="M1448.5,-462C1448.5,-462 1190.5,-462 1190.5,-462 1184.5,-462 1178.5,-456 1178.5,-450 1178.5,-450 1178.5,-372 1178.5,-372 1178.5,-366 1184.5,-360 1190.5,-360 1190.5,-360 1448.5,-360 1448.5,-360 1454.5,-360 1460.5,-366 1460.5,-372 1460.5,-372 1460.5,-450 1460.5,-450 1460.5,-456 1454.5,-462 1448.5,-462"/>
<text text-anchor="start" x="1199.5" y="-434.6" font-family="Monospace" font-weight="bold" font-size="18.00">icExpBackground</text>
<text text-anchor="start" x="1199.5" y="-405.8" font-family="Monospace" font-style="italic" font-size="14.00">dimensions:</text>
<text text-anchor="start" x="1290.5" y="-405.8" font-family="Monospace" font-size="14.00"> {detector, visit}</text>
<text text-anchor="start" x="1199.5" y="-378.8" font-family="Monospace" font-style="italic" font-size="14.00">storage class:</text>
<text text-anchor="start" x="1315.5" y="-378.8" font-family="Monospace" font-size="14.00"> Background</text>
</g>
<!-- characterizeImage:2&#45;&gt;icExpBackground:0 -->
<g id="edge10" class="edge">
<title>characterizeImage:2&#45;&gt;icExpBackground:0</title>
<path fill="none" stroke="black" stroke-width="1.5" d="M1214,-531.86C1214,-531.86 1214,-477.24 1214,-477.24"/>
<polygon fill="black" stroke="black" stroke-width="1.5" points="1219.25,-477.24 1214,-462.24 1208.75,-477.24 1219.25,-477.24"/>
</g>
<!-- calibrate:2 -->
<g id="node12" class="node">
<title>calibrate:2</title>
<polygon fill="#b1f2ef" stroke="black" stroke-width="3" points="1024.5,-290 660.5,-290 660.5,-188 1024.5,-188 1024.5,-290"/>
<text text-anchor="start" x="681.5" y="-262.6" font-family="Monospace" font-weight="bold" font-size="18.00">calibrate</text>
<text text-anchor="start" x="681.5" y="-232.8" font-family="Monospace" font-size="14.00">lsst.pipe.tasks.calibrate.CalibrateTask</text>
<text text-anchor="start" x="681.5" y="-206.8" font-family="Monospace" font-style="italic" font-size="14.00">dimensions:</text>
<text text-anchor="start" x="772.5" y="-206.8" font-family="Monospace" font-size="14.00"> {detector, visit}</text>
</g>
<!-- icExp:0&#45;&gt;calibrate:2 -->
<g id="edge11" class="edge">
<title>icExp:0&#45;&gt;calibrate:2</title>
<path fill="none" stroke="black" stroke-width="1.5" d="M769.83,-359.86C769.83,-359.86 769.83,-305.24 769.83,-305.24"/>
<polygon fill="black" stroke="black" stroke-width="1.5" points="775.08,-305.24 769.83,-290.24 764.58,-305.24 775.08,-305.24"/>
</g>
<!-- icSrc:0&#45;&gt;calibrate:2 -->
<g id="edge12" class="edge">
<title>icSrc:0&#45;&gt;calibrate:2</title>
<path fill="none" stroke="black" stroke-width="1.5" d="M942.5,-359.86C942.5,-359.86 942.5,-305.24 942.5,-305.24"/>
<polygon fill="black" stroke="black" stroke-width="1.5" points="947.75,-305.24 942.5,-290.24 937.25,-305.24 947.75,-305.24"/>
</g>
<!-- icExpBackground:0&#45;&gt;calibrate:2 -->
<g id="edge13" class="edge">
<title>icExpBackground:0&#45;&gt;calibrate:2</title>
<path fill="none" stroke="black" stroke-width="1.5" d="M1319.5,-359.86C1319.5,-309.16 1319.5,-239 1319.5,-239 1319.5,-239 1039.53,-239 1039.53,-239"/>
<polygon fill="black" stroke="black" stroke-width="1.5" points="1039.53,-233.75 1024.53,-239 1039.53,-244.25 1039.53,-233.75"/>
</g>
<!-- src:0 -->
<g id="node13" class="node">
<title>src:0</title>
<path fill="#f5f5f5" stroke="#00babc" stroke-width="3" d="M494.5,-118C494.5,-118 236.5,-118 236.5,-118 230.5,-118 224.5,-112 224.5,-106 224.5,-106 224.5,-28 224.5,-28 224.5,-22 230.5,-16 236.5,-16 236.5,-16 494.5,-16 494.5,-16 500.5,-16 506.5,-22 506.5,-28 506.5,-28 506.5,-106 506.5,-106 506.5,-112 500.5,-118 494.5,-118"/>
<text text-anchor="start" x="245.5" y="-90.6" font-family="Monospace" font-weight="bold" font-size="18.00">src</text>
<text text-anchor="start" x="245.5" y="-61.8" font-family="Monospace" font-style="italic" font-size="14.00">dimensions:</text>
<text text-anchor="start" x="336.5" y="-61.8" font-family="Monospace" font-size="14.00"> {detector, visit}</text>
<text text-anchor="start" x="245.5" y="-34.8" font-family="Monospace" font-style="italic" font-size="14.00">storage class:</text>
<text text-anchor="start" x="361.5" y="-34.8" font-family="Monospace" font-size="14.00"> SourceCatalog</text>
</g>
<!-- calibrate:2&#45;&gt;src:0 -->
<g id="edge14" class="edge">
<title>calibrate:2&#45;&gt;src:0</title>
<path fill="none" stroke="black" stroke-width="1.5" d="M660.3,-239C527.06,-239 369.5,-239 369.5,-239 369.5,-239 369.5,-133.14 369.5,-133.14"/>
<polygon fill="black" stroke="black" stroke-width="1.5" points="374.75,-133.14 369.5,-118.14 364.25,-133.14 374.75,-133.14"/>
</g>
<!-- calexp:0 -->
<g id="node14" class="node">
<title>calexp:0</title>
<path fill="#f5f5f5" stroke="#00babc" stroke-width="3" d="M812.5,-118C812.5,-118 554.5,-118 554.5,-118 548.5,-118 542.5,-112 542.5,-106 542.5,-106 542.5,-28 542.5,-28 542.5,-22 548.5,-16 554.5,-16 554.5,-16 812.5,-16 812.5,-16 818.5,-16 824.5,-22 824.5,-28 824.5,-28 824.5,-106 824.5,-106 824.5,-112 818.5,-118 812.5,-118"/>
<text text-anchor="start" x="563.5" y="-90.6" font-family="Monospace" font-weight="bold" font-size="18.00">calexp</text>
<text text-anchor="start" x="563.5" y="-61.8" font-family="Monospace" font-style="italic" font-size="14.00">dimensions:</text>
<text text-anchor="start" x="654.5" y="-61.8" font-family="Monospace" font-size="14.00"> {detector, visit}</text>
<text text-anchor="start" x="563.5" y="-34.8" font-family="Monospace" font-style="italic" font-size="14.00">storage class:</text>
<text text-anchor="start" x="679.5" y="-34.8" font-family="Monospace" font-size="14.00"> ExposureF</text>
</g>
<!-- calibrate:2&#45;&gt;calexp:0 -->
<g id="edge15" class="edge">
<title>calibrate:2&#45;&gt;calexp:0</title>
<path fill="none" stroke="black" stroke-width="1.5" d="M742.5,-187.86C742.5,-187.86 742.5,-133.24 742.5,-133.24"/>
<polygon fill="black" stroke="black" stroke-width="1.5" points="747.75,-133.24 742.5,-118.24 737.25,-133.24 747.75,-133.24"/>
</g>
<!-- calexpBackground:0 -->
<g id="node15" class="node">
<title>calexpBackground:0</title>
<path fill="#f5f5f5" stroke="#00babc" stroke-width="3" d="M1130.5,-118C1130.5,-118 872.5,-118 872.5,-118 866.5,-118 860.5,-112 860.5,-106 860.5,-106 860.5,-28 860.5,-28 860.5,-22 866.5,-16 872.5,-16 872.5,-16 1130.5,-16 1130.5,-16 1136.5,-16 1142.5,-22 1142.5,-28 1142.5,-28 1142.5,-106 1142.5,-106 1142.5,-112 1136.5,-118 1130.5,-118"/>
<text text-anchor="start" x="881.5" y="-90.6" font-family="Monospace" font-weight="bold" font-size="18.00">calexpBackground</text>
<text text-anchor="start" x="881.5" y="-61.8" font-family="Monospace" font-style="italic" font-size="14.00">dimensions:</text>
<text text-anchor="start" x="972.5" y="-61.8" font-family="Monospace" font-size="14.00"> {detector, visit}</text>
<text text-anchor="start" x="881.5" y="-34.8" font-family="Monospace" font-style="italic" font-size="14.00">storage class:</text>
<text text-anchor="start" x="997.5" y="-34.8" font-family="Monospace" font-size="14.00"> Background</text>
</g>
<!-- calibrate:2&#45;&gt;calexpBackground:0 -->
<g id="edge16" class="edge">
<title>calibrate:2&#45;&gt;calexpBackground:0</title>
<path fill="none" stroke="black" stroke-width="1.5" d="M915.17,-187.86C915.17,-187.86 915.17,-133.24 915.17,-133.24"/>
<polygon fill="black" stroke="black" stroke-width="1.5" points="920.42,-133.24 915.17,-118.24 909.92,-133.24 920.42,-133.24"/>
</g>
<!-- 45e3f18b:0 -->
<g id="node19" class="node">
<title>45e3f18b:0</title>
<path fill="#f5f5f5" stroke="#00babc" stroke-width="3" d="M1448.5,-134C1448.5,-134 1190.5,-134 1190.5,-134 1184.5,-134 1178.5,-128 1178.5,-122 1178.5,-122 1178.5,-12 1178.5,-12 1178.5,-6 1184.5,0 1190.5,0 1190.5,0 1448.5,0 1448.5,0 1454.5,0 1460.5,-6 1460.5,-12 1460.5,-12 1460.5,-122 1460.5,-122 1460.5,-128 1454.5,-134 1448.5,-134"/>
<text text-anchor="start" x="1199.5" y="-106.6" font-family="Monospace" font-weight="bold" font-size="18.00">srcMatchFull</text>
<text text-anchor="start" x="1199.5" y="-74.6" font-family="Monospace" font-weight="bold" font-size="18.00">srcMatch</text>
<text text-anchor="start" x="1199.5" y="-45.8" font-family="Monospace" font-style="italic" font-size="14.00">dimensions:</text>
<text text-anchor="start" x="1290.5" y="-45.8" font-family="Monospace" font-size="14.00"> {detector, visit}</text>
<text text-anchor="start" x="1199.5" y="-18.8" font-family="Monospace" font-style="italic" font-size="14.00">storage class:</text>
<text text-anchor="start" x="1315.5" y="-18.8" font-family="Monospace" font-size="14.00"> Catalog</text>
</g>
<!-- calibrate:2&#45;&gt;45e3f18b:0 -->
<g id="edge17" class="edge">
<title>calibrate:2&#45;&gt;45e3f18b:0</title>
<path fill="none" stroke="black" stroke-width="1.5" d="M969.83,-187.79C969.83,-157.89 969.83,-126 969.83,-126 969.83,-126 1163.29,-126 1163.29,-126"/>
<polygon fill="black" stroke="black" stroke-width="1.5" points="1163.29,-131.25 1178.29,-126 1163.29,-120.75 1163.29,-131.25"/>
</g>
<!-- 998e6c26:0 -->
<g id="node16" class="node">
<title>998e6c26:0</title>
<path fill="#f5f5f5" stroke="#00babc" stroke-width="3" d="M1714,-1134C1714,-1134 1431,-1134 1431,-1134 1425,-1134 1419,-1128 1419,-1122 1419,-1122 1419,-1012 1419,-1012 1419,-1006 1425,-1000 1431,-1000 1431,-1000 1714,-1000 1714,-1000 1720,-1000 1726,-1006 1726,-1012 1726,-1012 1726,-1122 1726,-1122 1726,-1128 1720,-1134 1714,-1134"/>
<text text-anchor="start" x="1440.5" y="-1106.6" font-family="Monospace" font-weight="bold" font-size="18.00">raw</text>
<text text-anchor="start" x="1440.5" y="-1074.6" font-family="Monospace" font-weight="bold" font-size="18.00">overscanRaw</text>
<text text-anchor="start" x="1440.5" y="-1045.8" font-family="Monospace" font-style="italic" font-size="14.00">dimensions:</text>
<text text-anchor="start" x="1531.5" y="-1045.8" font-family="Monospace" font-size="14.00"> {detector, exposure}</text>
<text text-anchor="start" x="1440.5" y="-1018.8" font-family="Monospace" font-style="italic" font-size="14.00">storage class:</text>
<text text-anchor="start" x="1556.5" y="-1018.8" font-family="Monospace" font-size="14.00"> Exposure</text>
</g>
<!-- 998e6c26:0&#45;&gt;isr:2 -->
<g id="edge18" class="edge">
<title>998e6c26:0&#45;&gt;isr:2</title>
<path fill="none" stroke="black" stroke-width="1.5" d="M1418.71,-1008C1295.81,-1008 1144,-1008 1144,-1008 1144,-1008 1144,-961.21 1144,-961.21"/>
<polygon fill="black" stroke="black" stroke-width="1.5" points="1149.25,-961.21 1144,-946.21 1138.75,-961.21 1149.25,-961.21"/>
</g>
<!-- d28a74d6:0 -->
<g id="node17" class="node">
<title>d28a74d6:0</title>
<path fill="#f5f5f5" stroke="#00babc" stroke-width="3" d="M2106.5,-1134C2106.5,-1134 1774.5,-1134 1774.5,-1134 1768.5,-1134 1762.5,-1128 1762.5,-1122 1762.5,-1122 1762.5,-1012 1762.5,-1012 1762.5,-1006 1768.5,-1000 1774.5,-1000 1774.5,-1000 2106.5,-1000 2106.5,-1000 2112.5,-1000 2118.5,-1006 2118.5,-1012 2118.5,-1012 2118.5,-1122 2118.5,-1122 2118.5,-1128 2112.5,-1134 2106.5,-1134"/>
<text text-anchor="start" x="1783.5" y="-1106.6" font-family="Monospace" font-weight="bold" font-size="18.00">fringe</text>
<text text-anchor="start" x="1783.5" y="-1074.6" font-family="Monospace" font-weight="bold" font-size="18.00">flat</text>
<text text-anchor="start" x="1783.5" y="-1045.8" font-family="Monospace" font-style="italic" font-size="14.00">dimensions:</text>
<text text-anchor="start" x="1874.5" y="-1045.8" font-family="Monospace" font-size="14.00"> {detector, physical_filter}</text>
<text text-anchor="start" x="1783.5" y="-1018.8" font-family="Monospace" font-style="italic" font-size="14.00">storage class:</text>
<text text-anchor="start" x="1899.5" y="-1018.8" font-family="Monospace" font-size="14.00"> ExposureF</text>
</g>
<!-- d28a74d6:0&#45;&gt;isr:2 -->
<g id="edge19" class="edge">
<title>d28a74d6:0&#45;&gt;isr:2</title>
<path fill="none" stroke="black" stroke-width="1.5" d="M1940.5,-999.51C1940.5,-951.33 1940.5,-895 1940.5,-895 1940.5,-895 1170.24,-895 1170.24,-895"/>
<polygon fill="black" stroke="black" stroke-width="1.5" points="1170.24,-889.75 1155.24,-895 1170.24,-900.25 1170.24,-889.75"/>
</g>
<!-- c1110ee2:0 -->
<g id="node18" class="node">
<title>c1110ee2:0</title>
<path fill="#f5f5f5" stroke="#00babc" stroke-width="3" d="M494.5,-478C494.5,-478 244.5,-478 244.5,-478 238.5,-478 232.5,-472 232.5,-466 232.5,-466 232.5,-356 232.5,-356 232.5,-350 238.5,-344 244.5,-344 244.5,-344 494.5,-344 494.5,-344 500.5,-344 506.5,-350 506.5,-356 506.5,-356 506.5,-466 506.5,-466 506.5,-472 500.5,-478 494.5,-478"/>
<text text-anchor="start" x="253.5" y="-450.6" font-family="Monospace" font-weight="bold" font-size="18.00">ps1_pv3_3pi_20170110</text>
<text text-anchor="start" x="253.5" y="-418.6" font-family="Monospace" font-weight="bold" font-size="18.00">gaia_dr3_20230707</text>
<text text-anchor="start" x="253.5" y="-389.8" font-family="Monospace" font-style="italic" font-size="14.00">dimensions:</text>
<text text-anchor="start" x="344.5" y="-389.8" font-family="Monospace" font-size="14.00"> {htm7}</text>
<text text-anchor="start" x="253.5" y="-362.8" font-family="Monospace" font-style="italic" font-size="14.00">storage class:</text>
<text text-anchor="start" x="369.5" y="-362.8" font-family="Monospace" font-size="14.00"> SimpleCatalog</text>
</g>
<!-- c1110ee2:0&#45;&gt;calibrate:2 -->
<g id="edge20" class="edge">
<title>c1110ee2:0&#45;&gt;calibrate:2</title>
<path fill="none" stroke="black" stroke-width="1.5" d="M506.61,-352C603.12,-352 715.17,-352 715.17,-352 715.17,-352 715.17,-305.21 715.17,-305.21"/>
<polygon fill="black" stroke="black" stroke-width="1.5" points="720.42,-305.21 715.17,-290.21 709.92,-305.21 720.42,-305.21"/>
</g>
</g>
</svg>
